G04 #@! TF.GenerationSoftware,KiCad,Pcbnew,7.0.8-7.0.8~ubuntu22.04.1*
G04 #@! TF.CreationDate,2023-11-04T16:43:40+00:00*
G04 #@! TF.ProjectId,kicad_dual_neopixel_driver,6b696361-645f-4647-9561-6c5f6e656f70,rev?*
G04 #@! TF.SameCoordinates,Original*
G04 #@! TF.FileFunction,Soldermask,Top*
G04 #@! TF.FilePolarity,Negative*
%FSLAX46Y46*%
G04 Gerber Fmt 4.6, Leading zero omitted, Abs format (unit mm)*
G04 Created by KiCad (PCBNEW 7.0.8-7.0.8~ubuntu22.04.1) date 2023-11-04 16:43:40*
%MOMM*%
%LPD*%
G01*
G04 APERTURE LIST*
G04 Aperture macros list*
%AMRoundRect*
0 Rectangle with rounded corners*
0 $1 Rounding radius*
0 $2 $3 $4 $5 $6 $7 $8 $9 X,Y pos of 4 corners*
0 Add a 4 corners polygon primitive as box body*
4,1,4,$2,$3,$4,$5,$6,$7,$8,$9,$2,$3,0*
0 Add four circle primitives for the rounded corners*
1,1,$1+$1,$2,$3*
1,1,$1+$1,$4,$5*
1,1,$1+$1,$6,$7*
1,1,$1+$1,$8,$9*
0 Add four rect primitives between the rounded corners*
20,1,$1+$1,$2,$3,$4,$5,0*
20,1,$1+$1,$4,$5,$6,$7,0*
20,1,$1+$1,$6,$7,$8,$9,0*
20,1,$1+$1,$8,$9,$2,$3,0*%
G04 Aperture macros list end*
%ADD10RoundRect,0.237500X0.250000X0.237500X-0.250000X0.237500X-0.250000X-0.237500X0.250000X-0.237500X0*%
%ADD11RoundRect,0.237500X-0.237500X0.250000X-0.237500X-0.250000X0.237500X-0.250000X0.237500X0.250000X0*%
%ADD12R,1.500000X2.000000*%
%ADD13R,3.800000X2.000000*%
%ADD14R,1.700000X1.700000*%
%ADD15O,1.700000X1.700000*%
%ADD16R,0.900000X1.500000*%
%ADD17R,1.500000X0.900000*%
%ADD18C,0.600000*%
%ADD19R,3.800000X3.800000*%
%ADD20R,2.800000X1.000000*%
%ADD21C,1.500000*%
%ADD22C,0.650000*%
%ADD23R,0.300000X1.150000*%
%ADD24O,1.000000X2.100000*%
%ADD25O,1.000000X1.600000*%
%ADD26C,5.600000*%
%ADD27RoundRect,0.250000X0.650000X-0.325000X0.650000X0.325000X-0.650000X0.325000X-0.650000X-0.325000X0*%
%ADD28RoundRect,0.225000X-0.225000X-0.250000X0.225000X-0.250000X0.225000X0.250000X-0.225000X0.250000X0*%
%ADD29R,3.000000X3.000000*%
%ADD30C,3.000000*%
%ADD31RoundRect,1.000000X-1.000000X-3.000000X1.000000X-3.000000X1.000000X3.000000X-1.000000X3.000000X0*%
%ADD32RoundRect,0.250000X1.000000X0.650000X-1.000000X0.650000X-1.000000X-0.650000X1.000000X-0.650000X0*%
%ADD33RoundRect,0.200000X0.200000X0.275000X-0.200000X0.275000X-0.200000X-0.275000X0.200000X-0.275000X0*%
%ADD34RoundRect,0.150000X0.150000X-0.512500X0.150000X0.512500X-0.150000X0.512500X-0.150000X-0.512500X0*%
%ADD35RoundRect,0.225000X0.225000X0.250000X-0.225000X0.250000X-0.225000X-0.250000X0.225000X-0.250000X0*%
%ADD36RoundRect,0.250000X0.325000X0.650000X-0.325000X0.650000X-0.325000X-0.650000X0.325000X-0.650000X0*%
G04 APERTURE END LIST*
D10*
G04 #@! TO.C,R1*
X156912500Y-97000000D03*
X155087500Y-97000000D03*
G04 #@! TD*
D11*
G04 #@! TO.C,R3*
X151000000Y-126887500D03*
X151000000Y-128712500D03*
G04 #@! TD*
D12*
G04 #@! TO.C,U1*
X147400000Y-138150000D03*
X149700000Y-138150000D03*
D13*
X149700000Y-131850000D03*
D12*
X152000000Y-138150000D03*
G04 #@! TD*
D14*
G04 #@! TO.C,J4*
X171920000Y-128524000D03*
D15*
X174460000Y-128524000D03*
X177000000Y-128524000D03*
G04 #@! TD*
D16*
G04 #@! TO.C,U4*
X136880000Y-123650000D03*
X138150000Y-123650000D03*
X139420000Y-123650000D03*
X140690000Y-123650000D03*
X141960000Y-123650000D03*
X143230000Y-123650000D03*
X144500000Y-123650000D03*
X145770000Y-123650000D03*
X147040000Y-123650000D03*
X148310000Y-123650000D03*
X149580000Y-123650000D03*
X150850000Y-123650000D03*
X152120000Y-123650000D03*
X153390000Y-123650000D03*
D17*
X154640000Y-120610000D03*
X154640000Y-119340000D03*
X154640000Y-118070000D03*
X154640000Y-116800000D03*
X154640000Y-115530000D03*
X154640000Y-114260000D03*
X154640000Y-112990000D03*
X154640000Y-111720000D03*
X154640000Y-110450000D03*
X154640000Y-109180000D03*
D16*
X153390000Y-106150000D03*
X152120000Y-106150000D03*
X150850000Y-106150000D03*
X149580000Y-106150000D03*
X148310000Y-106150000D03*
X147040000Y-106150000D03*
X145770000Y-106150000D03*
X144500000Y-106150000D03*
X143230000Y-106150000D03*
X141960000Y-106150000D03*
X140690000Y-106150000D03*
X139420000Y-106150000D03*
X138150000Y-106150000D03*
X136880000Y-106150000D03*
D18*
X143900000Y-117800000D03*
X145300000Y-117800000D03*
X143200000Y-117100000D03*
X144600000Y-117100000D03*
X146000000Y-117100000D03*
X143900000Y-116425000D03*
X145300000Y-116425000D03*
D19*
X144600000Y-116400000D03*
D18*
X143200000Y-115700000D03*
X144600000Y-115700000D03*
X146000000Y-115700000D03*
X143900000Y-115000000D03*
X145300000Y-115000000D03*
G04 #@! TD*
D10*
G04 #@! TO.C,R2*
X156912500Y-100000000D03*
X155087500Y-100000000D03*
G04 #@! TD*
D20*
G04 #@! TO.C,SW2*
X138100000Y-96000000D03*
X143900000Y-96000000D03*
X138100000Y-100000000D03*
X143900000Y-100000000D03*
G04 #@! TD*
D21*
G04 #@! TO.C,R4*
X157000000Y-134300000D03*
X157000000Y-137700000D03*
G04 #@! TD*
D14*
G04 #@! TO.C,J6*
X144300000Y-92200000D03*
D15*
X146840000Y-92200000D03*
X149380000Y-92200000D03*
X151920000Y-92200000D03*
X154460000Y-92200000D03*
X157000000Y-92200000D03*
G04 #@! TD*
D22*
G04 #@! TO.C,J5*
X168570000Y-96805000D03*
X162790000Y-96805000D03*
D23*
X169030000Y-97870000D03*
X168230000Y-97870000D03*
X166930000Y-97870000D03*
X165930000Y-97870000D03*
X165430000Y-97870000D03*
X164430000Y-97870000D03*
X163130000Y-97870000D03*
X162330000Y-97870000D03*
X162630000Y-97870000D03*
X163430000Y-97870000D03*
X163930000Y-97870000D03*
X164930000Y-97870000D03*
X166430000Y-97870000D03*
X167430000Y-97870000D03*
X167930000Y-97870000D03*
X168730000Y-97870000D03*
D24*
X170000000Y-97305000D03*
D25*
X170000000Y-93125000D03*
D24*
X161360000Y-97305000D03*
D25*
X161360000Y-93125000D03*
G04 #@! TD*
D26*
G04 #@! TO.C,REF\u002A\u002A*
X175000000Y-94000000D03*
G04 #@! TD*
D27*
G04 #@! TO.C,C1*
X155000000Y-131475000D03*
X155000000Y-128525000D03*
G04 #@! TD*
D28*
G04 #@! TO.C,C5*
X142400000Y-130300000D03*
X143950000Y-130300000D03*
G04 #@! TD*
D26*
G04 #@! TO.C,REF\u002A\u002A*
X175000000Y-136000000D03*
G04 #@! TD*
D29*
G04 #@! TO.C,J3*
X175000000Y-107000000D03*
D30*
X175000000Y-112080000D03*
X175000000Y-117160000D03*
X175000000Y-122240000D03*
G04 #@! TD*
D31*
G04 #@! TO.C,J1*
X162460000Y-135000000D03*
X167540000Y-135000000D03*
G04 #@! TD*
D32*
G04 #@! TO.C,D2*
X167000000Y-101400000D03*
X163000000Y-101400000D03*
G04 #@! TD*
D17*
G04 #@! TO.C,D1*
X162550000Y-111350000D03*
X162550000Y-114650000D03*
X167450000Y-114650000D03*
X167450000Y-111350000D03*
G04 #@! TD*
D14*
G04 #@! TO.C,J2*
X171920000Y-101000000D03*
D15*
X174460000Y-101000000D03*
X177000000Y-101000000D03*
G04 #@! TD*
D33*
G04 #@! TO.C,R5*
X143900000Y-126900000D03*
X142250000Y-126900000D03*
G04 #@! TD*
D34*
G04 #@! TO.C,U3*
X165050000Y-108137500D03*
X166000000Y-108137500D03*
X166950000Y-108137500D03*
X166950000Y-105862500D03*
X165050000Y-105862500D03*
G04 #@! TD*
D27*
G04 #@! TO.C,C2*
X148000000Y-129275000D03*
X148000000Y-126325000D03*
G04 #@! TD*
D34*
G04 #@! TO.C,U2*
X160050000Y-108137500D03*
X161000000Y-108137500D03*
X161950000Y-108137500D03*
X161950000Y-105862500D03*
X160050000Y-105862500D03*
G04 #@! TD*
D17*
G04 #@! TO.C,D3*
X162550000Y-118350000D03*
X162550000Y-121650000D03*
X167450000Y-121650000D03*
X167450000Y-118350000D03*
G04 #@! TD*
D35*
G04 #@! TO.C,C4*
X139575000Y-130400000D03*
X138025000Y-130400000D03*
G04 #@! TD*
D20*
G04 #@! TO.C,SW1*
X143900000Y-138000000D03*
X138100000Y-138000000D03*
X143900000Y-134000000D03*
X138100000Y-134000000D03*
G04 #@! TD*
D36*
G04 #@! TO.C,C3*
X140475000Y-127000000D03*
X137525000Y-127000000D03*
G04 #@! TD*
M02*
