M48
; DRILL file {KiCad 7.0.8-7.0.8~ubuntu22.04.1} date Sat Nov  4 16:43:40 2023
; FORMAT={-:-/ absolute / metric / decimal}
; #@! TF.CreationDate,2023-11-04T16:43:40+00:00
; #@! TF.GenerationSoftware,Kicad,Pcbnew,7.0.8-7.0.8~ubuntu22.04.1
; #@! TF.FileFunction,MixedPlating,1,4
FMAT,2
METRIC
; #@! TA.AperFunction,Plated,PTH,ComponentDrill
T1C0.200
; #@! TA.AperFunction,Plated,PTH,ViaDrill
T2C0.400
; #@! TA.AperFunction,Plated,PTH,ComponentDrill
T3C0.600
; #@! TA.AperFunction,Plated,PTH,ComponentDrill
T4C0.800
; #@! TA.AperFunction,Plated,PTH,ComponentDrill
T5C1.000
; #@! TA.AperFunction,Plated,PTH,ComponentDrill
T6C1.500
; #@! TA.AperFunction,Plated,PTH,ComponentDrill
T7C1.520
; #@! TA.AperFunction,Plated,PTH,ComponentDrill
T8C3.200
; #@! TA.AperFunction,NonPlated,NPTH,ComponentDrill
T9C0.650
%
G90
G05
T1
X143.2Y-115.7
X143.2Y-117.1
X143.9Y-115.0
X143.9Y-116.425
X143.9Y-117.8
X144.6Y-115.7
X144.6Y-117.1
X145.3Y-115.0
X145.3Y-116.425
X145.3Y-117.8
X146.0Y-115.7
X146.0Y-117.1
T2
X139.0Y-122.0
X141.0Y-129.0
X145.0Y-136.0
X146.0Y-100.0
X147.0Y-131.0
X147.987Y-101.987
X152.0Y-105.0
X153.0Y-132.0
X155.0Y-99.0
X157.0Y-109.0
X161.0Y-111.0
X161.0Y-118.0
X163.0Y-108.0
X166.0Y-120.0
X168.0Y-109.0
T4
X157.0Y-134.3
X157.0Y-137.7
T5
X144.3Y-92.2
X146.84Y-92.2
X149.38Y-92.2
X151.92Y-92.2
X154.46Y-92.2
X157.0Y-92.2
X171.92Y-101.0
X171.92Y-128.524
X174.46Y-101.0
X174.46Y-128.524
X177.0Y-101.0
X177.0Y-128.524
T6
X162.46Y-133.0
X167.54Y-133.0
T7
X175.0Y-107.0
X175.0Y-112.08
X175.0Y-117.16
X175.0Y-122.24
T8
X175.0Y-94.0
X175.0Y-136.0
T9
X162.79Y-96.805
X168.57Y-96.805
T3
X161.36Y-93.425G85X161.36Y-92.825
G05
X161.36Y-97.855G85X161.36Y-96.755
G05
X170.0Y-93.425G85X170.0Y-92.825
G05
X170.0Y-97.855G85X170.0Y-96.755
G05
T0
M30
