G04 #@! TF.GenerationSoftware,KiCad,Pcbnew,7.0.8-7.0.8~ubuntu22.04.1*
G04 #@! TF.CreationDate,2023-11-04T16:43:40+00:00*
G04 #@! TF.ProjectId,kicad_dual_neopixel_driver,6b696361-645f-4647-9561-6c5f6e656f70,rev?*
G04 #@! TF.SameCoordinates,Original*
G04 #@! TF.FileFunction,Legend,Top*
G04 #@! TF.FilePolarity,Positive*
%FSLAX46Y46*%
G04 Gerber Fmt 4.6, Leading zero omitted, Abs format (unit mm)*
G04 Created by KiCad (PCBNEW 7.0.8-7.0.8~ubuntu22.04.1) date 2023-11-04 16:43:40*
%MOMM*%
%LPD*%
G01*
G04 APERTURE LIST*
%ADD10C,0.150000*%
%ADD11C,0.120000*%
G04 APERTURE END LIST*
D10*
X133134914Y-137474173D02*
X133206342Y-137259887D01*
X133206342Y-137259887D02*
X133277771Y-137188458D01*
X133277771Y-137188458D02*
X133420628Y-137117030D01*
X133420628Y-137117030D02*
X133634914Y-137117030D01*
X133634914Y-137117030D02*
X133777771Y-137188458D01*
X133777771Y-137188458D02*
X133849200Y-137259887D01*
X133849200Y-137259887D02*
X133920628Y-137402744D01*
X133920628Y-137402744D02*
X133920628Y-137974173D01*
X133920628Y-137974173D02*
X132420628Y-137974173D01*
X132420628Y-137974173D02*
X132420628Y-137474173D01*
X132420628Y-137474173D02*
X132492057Y-137331316D01*
X132492057Y-137331316D02*
X132563485Y-137259887D01*
X132563485Y-137259887D02*
X132706342Y-137188458D01*
X132706342Y-137188458D02*
X132849200Y-137188458D01*
X132849200Y-137188458D02*
X132992057Y-137259887D01*
X132992057Y-137259887D02*
X133063485Y-137331316D01*
X133063485Y-137331316D02*
X133134914Y-137474173D01*
X133134914Y-137474173D02*
X133134914Y-137974173D01*
X132420628Y-136188458D02*
X132420628Y-135902744D01*
X132420628Y-135902744D02*
X132492057Y-135759887D01*
X132492057Y-135759887D02*
X132634914Y-135617030D01*
X132634914Y-135617030D02*
X132920628Y-135545601D01*
X132920628Y-135545601D02*
X133420628Y-135545601D01*
X133420628Y-135545601D02*
X133706342Y-135617030D01*
X133706342Y-135617030D02*
X133849200Y-135759887D01*
X133849200Y-135759887D02*
X133920628Y-135902744D01*
X133920628Y-135902744D02*
X133920628Y-136188458D01*
X133920628Y-136188458D02*
X133849200Y-136331316D01*
X133849200Y-136331316D02*
X133706342Y-136474173D01*
X133706342Y-136474173D02*
X133420628Y-136545601D01*
X133420628Y-136545601D02*
X132920628Y-136545601D01*
X132920628Y-136545601D02*
X132634914Y-136474173D01*
X132634914Y-136474173D02*
X132492057Y-136331316D01*
X132492057Y-136331316D02*
X132420628Y-136188458D01*
X132420628Y-134617029D02*
X132420628Y-134331315D01*
X132420628Y-134331315D02*
X132492057Y-134188458D01*
X132492057Y-134188458D02*
X132634914Y-134045601D01*
X132634914Y-134045601D02*
X132920628Y-133974172D01*
X132920628Y-133974172D02*
X133420628Y-133974172D01*
X133420628Y-133974172D02*
X133706342Y-134045601D01*
X133706342Y-134045601D02*
X133849200Y-134188458D01*
X133849200Y-134188458D02*
X133920628Y-134331315D01*
X133920628Y-134331315D02*
X133920628Y-134617029D01*
X133920628Y-134617029D02*
X133849200Y-134759887D01*
X133849200Y-134759887D02*
X133706342Y-134902744D01*
X133706342Y-134902744D02*
X133420628Y-134974172D01*
X133420628Y-134974172D02*
X132920628Y-134974172D01*
X132920628Y-134974172D02*
X132634914Y-134902744D01*
X132634914Y-134902744D02*
X132492057Y-134759887D01*
X132492057Y-134759887D02*
X132420628Y-134617029D01*
X132420628Y-133545600D02*
X132420628Y-132688458D01*
X133920628Y-133117029D02*
X132420628Y-133117029D01*
X163039541Y-130110628D02*
X162182398Y-130110628D01*
X162610969Y-130110628D02*
X162610969Y-128610628D01*
X162610969Y-128610628D02*
X162468112Y-128824914D01*
X162468112Y-128824914D02*
X162325255Y-128967771D01*
X162325255Y-128967771D02*
X162182398Y-129039200D01*
X172413826Y-98868628D02*
X172413826Y-97368628D01*
X172413826Y-97368628D02*
X173270969Y-98868628D01*
X173270969Y-98868628D02*
X173270969Y-97368628D01*
X173985255Y-98868628D02*
X173985255Y-97368628D01*
X173985255Y-97368628D02*
X174556684Y-97368628D01*
X174556684Y-97368628D02*
X174699541Y-97440057D01*
X174699541Y-97440057D02*
X174770970Y-97511485D01*
X174770970Y-97511485D02*
X174842398Y-97654342D01*
X174842398Y-97654342D02*
X174842398Y-97868628D01*
X174842398Y-97868628D02*
X174770970Y-98011485D01*
X174770970Y-98011485D02*
X174699541Y-98082914D01*
X174699541Y-98082914D02*
X174556684Y-98154342D01*
X174556684Y-98154342D02*
X173985255Y-98154342D01*
X175342398Y-97368628D02*
X176342398Y-98868628D01*
X176342398Y-97368628D02*
X175342398Y-98868628D01*
X177699541Y-98868628D02*
X176842398Y-98868628D01*
X177270969Y-98868628D02*
X177270969Y-97368628D01*
X177270969Y-97368628D02*
X177128112Y-97582914D01*
X177128112Y-97582914D02*
X176985255Y-97725771D01*
X176985255Y-97725771D02*
X176842398Y-97797200D01*
X167262398Y-128753485D02*
X167333826Y-128682057D01*
X167333826Y-128682057D02*
X167476684Y-128610628D01*
X167476684Y-128610628D02*
X167833826Y-128610628D01*
X167833826Y-128610628D02*
X167976684Y-128682057D01*
X167976684Y-128682057D02*
X168048112Y-128753485D01*
X168048112Y-128753485D02*
X168119541Y-128896342D01*
X168119541Y-128896342D02*
X168119541Y-129039200D01*
X168119541Y-129039200D02*
X168048112Y-129253485D01*
X168048112Y-129253485D02*
X167190969Y-130110628D01*
X167190969Y-130110628D02*
X168119541Y-130110628D01*
X161531541Y-126070628D02*
X162388684Y-126070628D01*
X161960112Y-127570628D02*
X161960112Y-126070628D01*
X163174398Y-126070628D02*
X163460112Y-126070628D01*
X163460112Y-126070628D02*
X163602969Y-126142057D01*
X163602969Y-126142057D02*
X163745826Y-126284914D01*
X163745826Y-126284914D02*
X163817255Y-126570628D01*
X163817255Y-126570628D02*
X163817255Y-127070628D01*
X163817255Y-127070628D02*
X163745826Y-127356342D01*
X163745826Y-127356342D02*
X163602969Y-127499200D01*
X163602969Y-127499200D02*
X163460112Y-127570628D01*
X163460112Y-127570628D02*
X163174398Y-127570628D01*
X163174398Y-127570628D02*
X163031541Y-127499200D01*
X163031541Y-127499200D02*
X162888683Y-127356342D01*
X162888683Y-127356342D02*
X162817255Y-127070628D01*
X162817255Y-127070628D02*
X162817255Y-126570628D01*
X162817255Y-126570628D02*
X162888683Y-126284914D01*
X162888683Y-126284914D02*
X163031541Y-126142057D01*
X163031541Y-126142057D02*
X163174398Y-126070628D01*
X164460112Y-126070628D02*
X164460112Y-127284914D01*
X164460112Y-127284914D02*
X164531541Y-127427771D01*
X164531541Y-127427771D02*
X164602970Y-127499200D01*
X164602970Y-127499200D02*
X164745827Y-127570628D01*
X164745827Y-127570628D02*
X165031541Y-127570628D01*
X165031541Y-127570628D02*
X165174398Y-127499200D01*
X165174398Y-127499200D02*
X165245827Y-127427771D01*
X165245827Y-127427771D02*
X165317255Y-127284914D01*
X165317255Y-127284914D02*
X165317255Y-126070628D01*
X166888684Y-127427771D02*
X166817256Y-127499200D01*
X166817256Y-127499200D02*
X166602970Y-127570628D01*
X166602970Y-127570628D02*
X166460113Y-127570628D01*
X166460113Y-127570628D02*
X166245827Y-127499200D01*
X166245827Y-127499200D02*
X166102970Y-127356342D01*
X166102970Y-127356342D02*
X166031541Y-127213485D01*
X166031541Y-127213485D02*
X165960113Y-126927771D01*
X165960113Y-126927771D02*
X165960113Y-126713485D01*
X165960113Y-126713485D02*
X166031541Y-126427771D01*
X166031541Y-126427771D02*
X166102970Y-126284914D01*
X166102970Y-126284914D02*
X166245827Y-126142057D01*
X166245827Y-126142057D02*
X166460113Y-126070628D01*
X166460113Y-126070628D02*
X166602970Y-126070628D01*
X166602970Y-126070628D02*
X166817256Y-126142057D01*
X166817256Y-126142057D02*
X166888684Y-126213485D01*
X167531541Y-127570628D02*
X167531541Y-126070628D01*
X167531541Y-126784914D02*
X168388684Y-126784914D01*
X168388684Y-127570628D02*
X168388684Y-126070628D01*
X133666628Y-100033030D02*
X132952342Y-100533030D01*
X133666628Y-100890173D02*
X132166628Y-100890173D01*
X132166628Y-100890173D02*
X132166628Y-100318744D01*
X132166628Y-100318744D02*
X132238057Y-100175887D01*
X132238057Y-100175887D02*
X132309485Y-100104458D01*
X132309485Y-100104458D02*
X132452342Y-100033030D01*
X132452342Y-100033030D02*
X132666628Y-100033030D01*
X132666628Y-100033030D02*
X132809485Y-100104458D01*
X132809485Y-100104458D02*
X132880914Y-100175887D01*
X132880914Y-100175887D02*
X132952342Y-100318744D01*
X132952342Y-100318744D02*
X132952342Y-100890173D01*
X132880914Y-99390173D02*
X132880914Y-98890173D01*
X133666628Y-98675887D02*
X133666628Y-99390173D01*
X133666628Y-99390173D02*
X132166628Y-99390173D01*
X132166628Y-99390173D02*
X132166628Y-98675887D01*
X133595200Y-98104458D02*
X133666628Y-97890173D01*
X133666628Y-97890173D02*
X133666628Y-97533030D01*
X133666628Y-97533030D02*
X133595200Y-97390173D01*
X133595200Y-97390173D02*
X133523771Y-97318744D01*
X133523771Y-97318744D02*
X133380914Y-97247315D01*
X133380914Y-97247315D02*
X133238057Y-97247315D01*
X133238057Y-97247315D02*
X133095200Y-97318744D01*
X133095200Y-97318744D02*
X133023771Y-97390173D01*
X133023771Y-97390173D02*
X132952342Y-97533030D01*
X132952342Y-97533030D02*
X132880914Y-97818744D01*
X132880914Y-97818744D02*
X132809485Y-97961601D01*
X132809485Y-97961601D02*
X132738057Y-98033030D01*
X132738057Y-98033030D02*
X132595200Y-98104458D01*
X132595200Y-98104458D02*
X132452342Y-98104458D01*
X132452342Y-98104458D02*
X132309485Y-98033030D01*
X132309485Y-98033030D02*
X132238057Y-97961601D01*
X132238057Y-97961601D02*
X132166628Y-97818744D01*
X132166628Y-97818744D02*
X132166628Y-97461601D01*
X132166628Y-97461601D02*
X132238057Y-97247315D01*
X132880914Y-96604459D02*
X132880914Y-96104459D01*
X133666628Y-95890173D02*
X133666628Y-96604459D01*
X133666628Y-96604459D02*
X132166628Y-96604459D01*
X132166628Y-96604459D02*
X132166628Y-95890173D01*
X132166628Y-95461601D02*
X132166628Y-94604459D01*
X133666628Y-95033030D02*
X132166628Y-95033030D01*
X172667826Y-132650628D02*
X172667826Y-131150628D01*
X172667826Y-131150628D02*
X173524969Y-132650628D01*
X173524969Y-132650628D02*
X173524969Y-131150628D01*
X174239255Y-132650628D02*
X174239255Y-131150628D01*
X174239255Y-131150628D02*
X174810684Y-131150628D01*
X174810684Y-131150628D02*
X174953541Y-131222057D01*
X174953541Y-131222057D02*
X175024970Y-131293485D01*
X175024970Y-131293485D02*
X175096398Y-131436342D01*
X175096398Y-131436342D02*
X175096398Y-131650628D01*
X175096398Y-131650628D02*
X175024970Y-131793485D01*
X175024970Y-131793485D02*
X174953541Y-131864914D01*
X174953541Y-131864914D02*
X174810684Y-131936342D01*
X174810684Y-131936342D02*
X174239255Y-131936342D01*
X175596398Y-131150628D02*
X176596398Y-132650628D01*
X176596398Y-131150628D02*
X175596398Y-132650628D01*
X177096398Y-131293485D02*
X177167826Y-131222057D01*
X177167826Y-131222057D02*
X177310684Y-131150628D01*
X177310684Y-131150628D02*
X177667826Y-131150628D01*
X177667826Y-131150628D02*
X177810684Y-131222057D01*
X177810684Y-131222057D02*
X177882112Y-131293485D01*
X177882112Y-131293485D02*
X177953541Y-131436342D01*
X177953541Y-131436342D02*
X177953541Y-131579200D01*
X177953541Y-131579200D02*
X177882112Y-131793485D01*
X177882112Y-131793485D02*
X177024969Y-132650628D01*
X177024969Y-132650628D02*
X177953541Y-132650628D01*
X137980969Y-91526628D02*
X138909541Y-91526628D01*
X138909541Y-91526628D02*
X138409541Y-92098057D01*
X138409541Y-92098057D02*
X138623826Y-92098057D01*
X138623826Y-92098057D02*
X138766684Y-92169485D01*
X138766684Y-92169485D02*
X138838112Y-92240914D01*
X138838112Y-92240914D02*
X138909541Y-92383771D01*
X138909541Y-92383771D02*
X138909541Y-92740914D01*
X138909541Y-92740914D02*
X138838112Y-92883771D01*
X138838112Y-92883771D02*
X138766684Y-92955200D01*
X138766684Y-92955200D02*
X138623826Y-93026628D01*
X138623826Y-93026628D02*
X138195255Y-93026628D01*
X138195255Y-93026628D02*
X138052398Y-92955200D01*
X138052398Y-92955200D02*
X137980969Y-92883771D01*
X139338112Y-91526628D02*
X139838112Y-93026628D01*
X139838112Y-93026628D02*
X140338112Y-91526628D01*
X140695254Y-91526628D02*
X141623826Y-91526628D01*
X141623826Y-91526628D02*
X141123826Y-92098057D01*
X141123826Y-92098057D02*
X141338111Y-92098057D01*
X141338111Y-92098057D02*
X141480969Y-92169485D01*
X141480969Y-92169485D02*
X141552397Y-92240914D01*
X141552397Y-92240914D02*
X141623826Y-92383771D01*
X141623826Y-92383771D02*
X141623826Y-92740914D01*
X141623826Y-92740914D02*
X141552397Y-92883771D01*
X141552397Y-92883771D02*
X141480969Y-92955200D01*
X141480969Y-92955200D02*
X141338111Y-93026628D01*
X141338111Y-93026628D02*
X140909540Y-93026628D01*
X140909540Y-93026628D02*
X140766683Y-92955200D01*
X140766683Y-92955200D02*
X140695254Y-92883771D01*
D11*
G04 #@! TO.C,R1*
X156254724Y-97522500D02*
X155745276Y-97522500D01*
X156254724Y-96477500D02*
X155745276Y-96477500D01*
G04 #@! TO.C,R3*
X151522500Y-127545276D02*
X151522500Y-128054724D01*
X150477500Y-127545276D02*
X150477500Y-128054724D01*
G04 #@! TO.C,U1*
X146290000Y-139100000D02*
X146290000Y-133090000D01*
X153110000Y-136850000D02*
X153110000Y-133090000D01*
X146290000Y-133090000D02*
X147550000Y-133090000D01*
X153110000Y-133090000D02*
X151850000Y-133090000D01*
G04 #@! TO.C,J4*
X170590000Y-129854000D02*
X170590000Y-128524000D01*
X171920000Y-129854000D02*
X170590000Y-129854000D01*
X173190000Y-129854000D02*
X178330000Y-129854000D01*
X173190000Y-129854000D02*
X173190000Y-127194000D01*
X178330000Y-129854000D02*
X178330000Y-127194000D01*
X173190000Y-127194000D02*
X178330000Y-127194000D01*
G04 #@! TO.C,U4*
X129270000Y-124020000D02*
X135685000Y-124020000D01*
X129270000Y-124020000D02*
X129270000Y-105780000D01*
X135685000Y-124020000D02*
X135685000Y-124400000D01*
X154230000Y-124020000D02*
X155010000Y-124020000D01*
X155010000Y-124020000D02*
X155010000Y-123020000D01*
X129270000Y-105780000D02*
X135685000Y-105780000D01*
X154230000Y-105780000D02*
X155010000Y-105780000D01*
X155010000Y-105780000D02*
X155010000Y-106780000D01*
G04 #@! TO.C,R2*
X156254724Y-100522500D02*
X155745276Y-100522500D01*
X156254724Y-99477500D02*
X155745276Y-99477500D01*
G04 #@! TO.C,SW2*
X137790000Y-94790000D02*
X137790000Y-95200000D01*
X137790000Y-96800000D02*
X137790000Y-99200000D01*
X137790000Y-100800000D02*
X137790000Y-101210000D01*
X137790000Y-101210000D02*
X144210000Y-101210000D01*
X144210000Y-94790000D02*
X137790000Y-94790000D01*
X144210000Y-95200000D02*
X144210000Y-94790000D01*
X144210000Y-99200000D02*
X144210000Y-96800000D01*
X144210000Y-101210000D02*
X144210000Y-100930000D01*
G04 #@! TO.C,R4*
X159150000Y-134450000D02*
X159150000Y-137500000D01*
X154850000Y-134450000D02*
X154850000Y-137500000D01*
X159165525Y-134471766D02*
G75*
G03*
X154850001Y-134450000I-2165525J-1528234D01*
G01*
X154881751Y-137544513D02*
G75*
G03*
X159150000Y-137500000I2118249J1544513D01*
G01*
G04 #@! TO.C,J6*
X142970000Y-93530000D02*
X142970000Y-92200000D01*
X144300000Y-93530000D02*
X142970000Y-93530000D01*
X145570000Y-93530000D02*
X158330000Y-93530000D01*
X145570000Y-93530000D02*
X145570000Y-90870000D01*
X158330000Y-93530000D02*
X158330000Y-90870000D01*
X145570000Y-90870000D02*
X158330000Y-90870000D01*
G04 #@! TO.C,J5*
X170260000Y-96050000D02*
X170260000Y-94130000D01*
X170260000Y-90415000D02*
X170260000Y-92120000D01*
X161100000Y-94130000D02*
X161100000Y-96050000D01*
X161100000Y-92120000D02*
X161100000Y-90415000D01*
X161100000Y-90415000D02*
X170260000Y-90415000D01*
G04 #@! TO.C,C1*
X154090000Y-130711252D02*
X154090000Y-129288748D01*
X155910000Y-130711252D02*
X155910000Y-129288748D01*
G04 #@! TO.C,C5*
X143034420Y-129790000D02*
X143315580Y-129790000D01*
X143034420Y-130810000D02*
X143315580Y-130810000D01*
G04 #@! TO.C,J3*
X178810000Y-104460000D02*
X171190000Y-104460000D01*
X178810000Y-104460000D02*
X178810000Y-124780000D01*
X171190000Y-104460000D02*
X171190000Y-124780000D01*
X172460000Y-124780000D02*
X172460000Y-104460000D01*
X171190000Y-124780000D02*
X178810000Y-124780000D01*
G04 #@! TO.C,D2*
X168510000Y-103050000D02*
X168510000Y-99750000D01*
X168510000Y-103050000D02*
X163000000Y-103050000D01*
X168510000Y-99750000D02*
X163000000Y-99750000D01*
G04 #@! TO.C,D1*
X161350000Y-110250000D02*
X168650000Y-110250000D01*
X161350000Y-115750000D02*
X168650000Y-115750000D01*
X168650000Y-115750000D02*
X168650000Y-114600000D01*
G04 #@! TO.C,J2*
X170590000Y-102330000D02*
X170590000Y-101000000D01*
X171920000Y-102330000D02*
X170590000Y-102330000D01*
X173190000Y-102330000D02*
X178330000Y-102330000D01*
X173190000Y-102330000D02*
X173190000Y-99670000D01*
X178330000Y-102330000D02*
X178330000Y-99670000D01*
X173190000Y-99670000D02*
X178330000Y-99670000D01*
G04 #@! TO.C,R5*
X143312258Y-127422500D02*
X142837742Y-127422500D01*
X143312258Y-126377500D02*
X142837742Y-126377500D01*
G04 #@! TO.C,U3*
X164440000Y-107000000D02*
X164440000Y-108800000D01*
X164440000Y-107000000D02*
X164440000Y-106200000D01*
X167560000Y-107000000D02*
X167560000Y-107800000D01*
X167560000Y-107000000D02*
X167560000Y-106200000D01*
G04 #@! TO.C,C2*
X147090000Y-128511252D02*
X147090000Y-127088748D01*
X148910000Y-128511252D02*
X148910000Y-127088748D01*
G04 #@! TO.C,U2*
X159440000Y-107000000D02*
X159440000Y-108800000D01*
X159440000Y-107000000D02*
X159440000Y-106200000D01*
X162560000Y-107000000D02*
X162560000Y-107800000D01*
X162560000Y-107000000D02*
X162560000Y-106200000D01*
G04 #@! TO.C,D3*
X161350000Y-117250000D02*
X168650000Y-117250000D01*
X161350000Y-122750000D02*
X168650000Y-122750000D01*
X168650000Y-122750000D02*
X168650000Y-121600000D01*
G04 #@! TO.C,C4*
X138940580Y-130910000D02*
X138659420Y-130910000D01*
X138940580Y-129890000D02*
X138659420Y-129890000D01*
G04 #@! TO.C,SW1*
X144210000Y-139210000D02*
X144210000Y-138800000D01*
X144210000Y-137200000D02*
X144210000Y-134800000D01*
X144210000Y-133200000D02*
X144210000Y-132790000D01*
X144210000Y-132790000D02*
X137790000Y-132790000D01*
X137790000Y-139210000D02*
X144210000Y-139210000D01*
X137790000Y-138800000D02*
X137790000Y-139210000D01*
X137790000Y-134800000D02*
X137790000Y-137200000D01*
X137790000Y-132790000D02*
X137790000Y-133070000D01*
G04 #@! TO.C,C3*
X139711252Y-127910000D02*
X138288748Y-127910000D01*
X139711252Y-126090000D02*
X138288748Y-126090000D01*
G04 #@! TD*
M02*
