G04 #@! TF.GenerationSoftware,KiCad,Pcbnew,7.0.8-7.0.8~ubuntu22.04.1*
G04 #@! TF.CreationDate,2023-11-04T16:43:40+00:00*
G04 #@! TF.ProjectId,kicad_dual_neopixel_driver,6b696361-645f-4647-9561-6c5f6e656f70,rev?*
G04 #@! TF.SameCoordinates,Original*
G04 #@! TF.FileFunction,Copper,L1,Top*
G04 #@! TF.FilePolarity,Positive*
%FSLAX46Y46*%
G04 Gerber Fmt 4.6, Leading zero omitted, Abs format (unit mm)*
G04 Created by KiCad (PCBNEW 7.0.8-7.0.8~ubuntu22.04.1) date 2023-11-04 16:43:40*
%MOMM*%
%LPD*%
G01*
G04 APERTURE LIST*
G04 Aperture macros list*
%AMRoundRect*
0 Rectangle with rounded corners*
0 $1 Rounding radius*
0 $2 $3 $4 $5 $6 $7 $8 $9 X,Y pos of 4 corners*
0 Add a 4 corners polygon primitive as box body*
4,1,4,$2,$3,$4,$5,$6,$7,$8,$9,$2,$3,0*
0 Add four circle primitives for the rounded corners*
1,1,$1+$1,$2,$3*
1,1,$1+$1,$4,$5*
1,1,$1+$1,$6,$7*
1,1,$1+$1,$8,$9*
0 Add four rect primitives between the rounded corners*
20,1,$1+$1,$2,$3,$4,$5,0*
20,1,$1+$1,$4,$5,$6,$7,0*
20,1,$1+$1,$6,$7,$8,$9,0*
20,1,$1+$1,$8,$9,$2,$3,0*%
G04 Aperture macros list end*
G04 #@! TA.AperFunction,SMDPad,CuDef*
%ADD10RoundRect,0.237500X0.250000X0.237500X-0.250000X0.237500X-0.250000X-0.237500X0.250000X-0.237500X0*%
G04 #@! TD*
G04 #@! TA.AperFunction,SMDPad,CuDef*
%ADD11RoundRect,0.237500X-0.237500X0.250000X-0.237500X-0.250000X0.237500X-0.250000X0.237500X0.250000X0*%
G04 #@! TD*
G04 #@! TA.AperFunction,SMDPad,CuDef*
%ADD12R,1.500000X2.000000*%
G04 #@! TD*
G04 #@! TA.AperFunction,SMDPad,CuDef*
%ADD13R,3.800000X2.000000*%
G04 #@! TD*
G04 #@! TA.AperFunction,ComponentPad*
%ADD14R,1.700000X1.700000*%
G04 #@! TD*
G04 #@! TA.AperFunction,ComponentPad*
%ADD15O,1.700000X1.700000*%
G04 #@! TD*
G04 #@! TA.AperFunction,SMDPad,CuDef*
%ADD16R,0.900000X1.500000*%
G04 #@! TD*
G04 #@! TA.AperFunction,SMDPad,CuDef*
%ADD17R,1.500000X0.900000*%
G04 #@! TD*
G04 #@! TA.AperFunction,SMDPad,CuDef*
%ADD18R,0.900000X0.900000*%
G04 #@! TD*
G04 #@! TA.AperFunction,HeatsinkPad*
%ADD19C,0.600000*%
G04 #@! TD*
G04 #@! TA.AperFunction,SMDPad,CuDef*
%ADD20R,3.800000X3.800000*%
G04 #@! TD*
G04 #@! TA.AperFunction,SMDPad,CuDef*
%ADD21R,2.800000X1.000000*%
G04 #@! TD*
G04 #@! TA.AperFunction,ComponentPad*
%ADD22C,1.500000*%
G04 #@! TD*
G04 #@! TA.AperFunction,SMDPad,CuDef*
%ADD23R,0.300000X1.150000*%
G04 #@! TD*
G04 #@! TA.AperFunction,ComponentPad*
%ADD24O,1.000000X2.100000*%
G04 #@! TD*
G04 #@! TA.AperFunction,ComponentPad*
%ADD25O,1.000000X1.600000*%
G04 #@! TD*
G04 #@! TA.AperFunction,ComponentPad*
%ADD26C,5.600000*%
G04 #@! TD*
G04 #@! TA.AperFunction,SMDPad,CuDef*
%ADD27RoundRect,0.250000X0.650000X-0.325000X0.650000X0.325000X-0.650000X0.325000X-0.650000X-0.325000X0*%
G04 #@! TD*
G04 #@! TA.AperFunction,SMDPad,CuDef*
%ADD28RoundRect,0.225000X-0.225000X-0.250000X0.225000X-0.250000X0.225000X0.250000X-0.225000X0.250000X0*%
G04 #@! TD*
G04 #@! TA.AperFunction,ComponentPad*
%ADD29R,3.000000X3.000000*%
G04 #@! TD*
G04 #@! TA.AperFunction,ComponentPad*
%ADD30C,3.000000*%
G04 #@! TD*
G04 #@! TA.AperFunction,ComponentPad*
%ADD31RoundRect,1.000000X-1.000000X-3.000000X1.000000X-3.000000X1.000000X3.000000X-1.000000X3.000000X0*%
G04 #@! TD*
G04 #@! TA.AperFunction,SMDPad,CuDef*
%ADD32RoundRect,0.250000X1.000000X0.650000X-1.000000X0.650000X-1.000000X-0.650000X1.000000X-0.650000X0*%
G04 #@! TD*
G04 #@! TA.AperFunction,SMDPad,CuDef*
%ADD33RoundRect,0.200000X0.200000X0.275000X-0.200000X0.275000X-0.200000X-0.275000X0.200000X-0.275000X0*%
G04 #@! TD*
G04 #@! TA.AperFunction,SMDPad,CuDef*
%ADD34RoundRect,0.150000X0.150000X-0.512500X0.150000X0.512500X-0.150000X0.512500X-0.150000X-0.512500X0*%
G04 #@! TD*
G04 #@! TA.AperFunction,SMDPad,CuDef*
%ADD35RoundRect,0.225000X0.225000X0.250000X-0.225000X0.250000X-0.225000X-0.250000X0.225000X-0.250000X0*%
G04 #@! TD*
G04 #@! TA.AperFunction,SMDPad,CuDef*
%ADD36RoundRect,0.250000X0.325000X0.650000X-0.325000X0.650000X-0.325000X-0.650000X0.325000X-0.650000X0*%
G04 #@! TD*
G04 #@! TA.AperFunction,ViaPad*
%ADD37C,0.800000*%
G04 #@! TD*
G04 #@! TA.AperFunction,Conductor*
%ADD38C,1.000000*%
G04 #@! TD*
G04 #@! TA.AperFunction,Conductor*
%ADD39C,0.250000*%
G04 #@! TD*
G04 APERTURE END LIST*
D10*
G04 #@! TO.P,R1,1*
G04 #@! TO.N,Net-(J5-CC2)*
X156912500Y-97000000D03*
G04 #@! TO.P,R1,2*
G04 #@! TO.N,GND*
X155087500Y-97000000D03*
G04 #@! TD*
D11*
G04 #@! TO.P,R3,1*
G04 #@! TO.N,+3V3*
X151000000Y-126887500D03*
G04 #@! TO.P,R3,2*
G04 #@! TO.N,LIGHT*
X151000000Y-128712500D03*
G04 #@! TD*
D12*
G04 #@! TO.P,U1,1,GND*
G04 #@! TO.N,GND*
X147400000Y-138150000D03*
G04 #@! TO.P,U1,2,VO*
G04 #@! TO.N,+3V3*
X149700000Y-138150000D03*
D13*
X149700000Y-131850000D03*
D12*
G04 #@! TO.P,U1,3,VI*
G04 #@! TO.N,+5V*
X152000000Y-138150000D03*
G04 #@! TD*
D14*
G04 #@! TO.P,J4,1,Pin_1*
G04 #@! TO.N,+5V*
X171920000Y-128524000D03*
D15*
G04 #@! TO.P,J4,2,Pin_2*
G04 #@! TO.N,Net-(D3-DOUT)*
X174460000Y-128524000D03*
G04 #@! TO.P,J4,3,Pin_3*
G04 #@! TO.N,GND*
X177000000Y-128524000D03*
G04 #@! TD*
D16*
G04 #@! TO.P,U4,1,GND*
G04 #@! TO.N,GND*
X136880000Y-123650000D03*
G04 #@! TO.P,U4,2,VDD*
G04 #@! TO.N,+3V3*
X138150000Y-123650000D03*
G04 #@! TO.P,U4,3,EN*
G04 #@! TO.N,RESET*
X139420000Y-123650000D03*
G04 #@! TO.P,U4,4,SENSOR_VP*
G04 #@! TO.N,unconnected-(U4-SENSOR_VP-Pad4)*
X140690000Y-123650000D03*
G04 #@! TO.P,U4,5,SENSOR_VN*
G04 #@! TO.N,unconnected-(U4-SENSOR_VN-Pad5)*
X141960000Y-123650000D03*
G04 #@! TO.P,U4,6,IO34*
G04 #@! TO.N,unconnected-(U4-IO34-Pad6)*
X143230000Y-123650000D03*
G04 #@! TO.P,U4,7,IO35*
G04 #@! TO.N,LIGHT*
X144500000Y-123650000D03*
G04 #@! TO.P,U4,8,IO32*
G04 #@! TO.N,unconnected-(U4-IO32-Pad8)*
X145770000Y-123650000D03*
G04 #@! TO.P,U4,9,IO33*
G04 #@! TO.N,unconnected-(U4-IO33-Pad9)*
X147040000Y-123650000D03*
G04 #@! TO.P,U4,10,IO25*
G04 #@! TO.N,unconnected-(U4-IO25-Pad10)*
X148310000Y-123650000D03*
G04 #@! TO.P,U4,11,IO26*
G04 #@! TO.N,unconnected-(U4-IO26-Pad11)*
X149580000Y-123650000D03*
G04 #@! TO.P,U4,12,IO27*
G04 #@! TO.N,unconnected-(U4-IO27-Pad12)*
X150850000Y-123650000D03*
G04 #@! TO.P,U4,13,IO14*
G04 #@! TO.N,unconnected-(U4-IO14-Pad13)*
X152120000Y-123650000D03*
G04 #@! TO.P,U4,14,IO12*
G04 #@! TO.N,unconnected-(U4-IO12-Pad14)*
X153390000Y-123650000D03*
D17*
G04 #@! TO.P,U4,15,GND*
G04 #@! TO.N,GND*
X154640000Y-120610000D03*
G04 #@! TO.P,U4,16,IO13*
G04 #@! TO.N,unconnected-(U4-IO13-Pad16)*
X154640000Y-119340000D03*
G04 #@! TO.P,U4,17,SHD/SD2*
G04 #@! TO.N,unconnected-(U4-SHD{slash}SD2-Pad17)*
X154640000Y-118070000D03*
G04 #@! TO.P,U4,18,SWP/SD3*
G04 #@! TO.N,unconnected-(U4-SWP{slash}SD3-Pad18)*
X154640000Y-116800000D03*
G04 #@! TO.P,U4,19,SCS/CMD*
G04 #@! TO.N,unconnected-(U4-SCS{slash}CMD-Pad19)*
X154640000Y-115530000D03*
G04 #@! TO.P,U4,20,SCK/CLK*
G04 #@! TO.N,unconnected-(U4-SCK{slash}CLK-Pad20)*
X154640000Y-114260000D03*
G04 #@! TO.P,U4,21,SDO/SD0*
G04 #@! TO.N,unconnected-(U4-SDO{slash}SD0-Pad21)*
X154640000Y-112990000D03*
G04 #@! TO.P,U4,22,SDI/SD1*
G04 #@! TO.N,unconnected-(U4-SDI{slash}SD1-Pad22)*
X154640000Y-111720000D03*
G04 #@! TO.P,U4,23,IO15*
G04 #@! TO.N,unconnected-(U4-IO15-Pad23)*
X154640000Y-110450000D03*
G04 #@! TO.P,U4,24,IO2*
G04 #@! TO.N,TOUCH1*
X154640000Y-109180000D03*
D16*
G04 #@! TO.P,U4,25,IO0*
G04 #@! TO.N,BOOT*
X153390000Y-106150000D03*
G04 #@! TO.P,U4,26,IO4*
G04 #@! TO.N,TOUCH2*
X152120000Y-106150000D03*
G04 #@! TO.P,U4,27,IO16*
G04 #@! TO.N,unconnected-(U4-IO16-Pad27)*
X150850000Y-106150000D03*
G04 #@! TO.P,U4,28,IO17*
G04 #@! TO.N,unconnected-(U4-IO17-Pad28)*
X149580000Y-106150000D03*
G04 #@! TO.P,U4,29,IO5*
G04 #@! TO.N,NPX1*
X148310000Y-106150000D03*
G04 #@! TO.P,U4,30,IO18*
G04 #@! TO.N,unconnected-(U4-IO18-Pad30)*
X147040000Y-106150000D03*
G04 #@! TO.P,U4,31,IO19*
G04 #@! TO.N,unconnected-(U4-IO19-Pad31)*
X145770000Y-106150000D03*
G04 #@! TO.P,U4,32,NC*
G04 #@! TO.N,unconnected-(U4-NC-Pad32)*
X144500000Y-106150000D03*
G04 #@! TO.P,U4,33,IO21*
G04 #@! TO.N,unconnected-(U4-IO21-Pad33)*
X143230000Y-106150000D03*
G04 #@! TO.P,U4,34,RXD0/IO3*
G04 #@! TO.N,RXDI_PROG*
X141960000Y-106150000D03*
G04 #@! TO.P,U4,35,TXD0/IO1*
G04 #@! TO.N,TXDO_PROG*
X140690000Y-106150000D03*
G04 #@! TO.P,U4,36,IO22*
G04 #@! TO.N,unconnected-(U4-IO22-Pad36)*
X139420000Y-106150000D03*
G04 #@! TO.P,U4,37,IO23*
G04 #@! TO.N,NPX2*
X138150000Y-106150000D03*
G04 #@! TO.P,U4,38,GND*
G04 #@! TO.N,GND*
X136880000Y-106150000D03*
D18*
G04 #@! TO.P,U4,39,GND*
X143200000Y-117800000D03*
D19*
X143900000Y-117800000D03*
D18*
X144600000Y-117800000D03*
D19*
X145300000Y-117800000D03*
D18*
X146000000Y-117800000D03*
D19*
X143200000Y-117100000D03*
X144600000Y-117100000D03*
X146000000Y-117100000D03*
X143900000Y-116425000D03*
X145300000Y-116425000D03*
D18*
X143200000Y-116400000D03*
X144600000Y-116400000D03*
D20*
X144600000Y-116400000D03*
D18*
X146000000Y-116400000D03*
D19*
X143200000Y-115700000D03*
X144600000Y-115700000D03*
X146000000Y-115700000D03*
D18*
X143200000Y-115000000D03*
D19*
X143900000Y-115000000D03*
D18*
X144600000Y-115000000D03*
D19*
X145300000Y-115000000D03*
D18*
X146000000Y-115000000D03*
G04 #@! TD*
D10*
G04 #@! TO.P,R2,1*
G04 #@! TO.N,Net-(J5-CC1)*
X156912500Y-100000000D03*
G04 #@! TO.P,R2,2*
G04 #@! TO.N,GND*
X155087500Y-100000000D03*
G04 #@! TD*
D21*
G04 #@! TO.P,SW2,1,1*
G04 #@! TO.N,GND*
X138100000Y-96000000D03*
X143900000Y-96000000D03*
G04 #@! TO.P,SW2,2,2*
G04 #@! TO.N,BOOT*
X138100000Y-100000000D03*
X143900000Y-100000000D03*
G04 #@! TD*
D22*
G04 #@! TO.P,R4,1*
G04 #@! TO.N,LIGHT*
X157000000Y-134300000D03*
G04 #@! TO.P,R4,2*
G04 #@! TO.N,GND*
X157000000Y-137700000D03*
G04 #@! TD*
D14*
G04 #@! TO.P,J6,1,Pin_1*
G04 #@! TO.N,+3V3*
X144300000Y-92200000D03*
D15*
G04 #@! TO.P,J6,2,Pin_2*
G04 #@! TO.N,GND*
X146840000Y-92200000D03*
G04 #@! TO.P,J6,3,Pin_3*
G04 #@! TO.N,TXDO_PROG*
X149380000Y-92200000D03*
G04 #@! TO.P,J6,4,Pin_4*
G04 #@! TO.N,RXDI_PROG*
X151920000Y-92200000D03*
G04 #@! TO.P,J6,5,Pin_5*
G04 #@! TO.N,RESET*
X154460000Y-92200000D03*
G04 #@! TO.P,J6,6,Pin_6*
G04 #@! TO.N,BOOT*
X157000000Y-92200000D03*
G04 #@! TD*
D23*
G04 #@! TO.P,J5,A1,GND*
G04 #@! TO.N,GND*
X169030000Y-97870000D03*
G04 #@! TO.P,J5,A4,VBUS*
G04 #@! TO.N,Net-(D2-A)*
X168230000Y-97870000D03*
G04 #@! TO.P,J5,A5,CC1*
G04 #@! TO.N,Net-(J5-CC1)*
X166930000Y-97870000D03*
G04 #@! TO.P,J5,A6,D+*
G04 #@! TO.N,unconnected-(J5-D+-PadA6)*
X165930000Y-97870000D03*
G04 #@! TO.P,J5,A7,D-*
G04 #@! TO.N,unconnected-(J5-D--PadA7)*
X165430000Y-97870000D03*
G04 #@! TO.P,J5,A8,SBU1*
G04 #@! TO.N,unconnected-(J5-SBU1-PadA8)*
X164430000Y-97870000D03*
G04 #@! TO.P,J5,A9,VBUS*
G04 #@! TO.N,Net-(D2-A)*
X163130000Y-97870000D03*
G04 #@! TO.P,J5,A12,GND*
G04 #@! TO.N,GND*
X162330000Y-97870000D03*
G04 #@! TO.P,J5,B1,GND*
X162630000Y-97870000D03*
G04 #@! TO.P,J5,B4,VBUS*
G04 #@! TO.N,Net-(D2-A)*
X163430000Y-97870000D03*
G04 #@! TO.P,J5,B5,CC2*
G04 #@! TO.N,Net-(J5-CC2)*
X163930000Y-97870000D03*
G04 #@! TO.P,J5,B6,D+*
G04 #@! TO.N,unconnected-(J5-D+-PadB6)*
X164930000Y-97870000D03*
G04 #@! TO.P,J5,B7,D-*
G04 #@! TO.N,unconnected-(J5-D--PadB7)*
X166430000Y-97870000D03*
G04 #@! TO.P,J5,B8,SBU2*
G04 #@! TO.N,unconnected-(J5-SBU2-PadB8)*
X167430000Y-97870000D03*
G04 #@! TO.P,J5,B9,VBUS*
G04 #@! TO.N,Net-(D2-A)*
X167930000Y-97870000D03*
G04 #@! TO.P,J5,B12,GND*
G04 #@! TO.N,GND*
X168730000Y-97870000D03*
D24*
G04 #@! TO.P,J5,S1,SHIELD*
X170000000Y-97305000D03*
D25*
X170000000Y-93125000D03*
D24*
X161360000Y-97305000D03*
D25*
X161360000Y-93125000D03*
G04 #@! TD*
D26*
G04 #@! TO.P,REF\u002A\u002A,1*
G04 #@! TO.N,N/C*
X175000000Y-94000000D03*
G04 #@! TD*
D27*
G04 #@! TO.P,C1,1*
G04 #@! TO.N,+5V*
X155000000Y-131475000D03*
G04 #@! TO.P,C1,2*
G04 #@! TO.N,GND*
X155000000Y-128525000D03*
G04 #@! TD*
D28*
G04 #@! TO.P,C5,1*
G04 #@! TO.N,RESET*
X142400000Y-130300000D03*
G04 #@! TO.P,C5,2*
G04 #@! TO.N,GND*
X143950000Y-130300000D03*
G04 #@! TD*
D26*
G04 #@! TO.P,REF\u002A\u002A,1*
G04 #@! TO.N,N/C*
X175000000Y-136000000D03*
G04 #@! TD*
D29*
G04 #@! TO.P,J3,1,Pin_1*
G04 #@! TO.N,+5V*
X175000000Y-107000000D03*
D30*
G04 #@! TO.P,J3,2,Pin_2*
G04 #@! TO.N,GND*
X175000000Y-112080000D03*
G04 #@! TO.P,J3,3,Pin_3*
G04 #@! TO.N,Net-(D1-DOUT)*
X175000000Y-117160000D03*
G04 #@! TO.P,J3,4,Pin_4*
G04 #@! TO.N,Net-(D3-DOUT)*
X175000000Y-122240000D03*
G04 #@! TD*
D31*
G04 #@! TO.P,J1,1,Pin_1*
G04 #@! TO.N,TOUCH1*
X162460000Y-135000000D03*
G04 #@! TO.P,J1,2,Pin_2*
G04 #@! TO.N,TOUCH2*
X167540000Y-135000000D03*
G04 #@! TD*
D32*
G04 #@! TO.P,D2,1,K*
G04 #@! TO.N,+5V*
X167000000Y-101400000D03*
G04 #@! TO.P,D2,2,A*
G04 #@! TO.N,Net-(D2-A)*
X163000000Y-101400000D03*
G04 #@! TD*
D17*
G04 #@! TO.P,D1,1,VDD*
G04 #@! TO.N,+5V*
X162550000Y-111350000D03*
G04 #@! TO.P,D1,2,DOUT*
G04 #@! TO.N,Net-(D1-DOUT)*
X162550000Y-114650000D03*
G04 #@! TO.P,D1,3,VSS*
G04 #@! TO.N,GND*
X167450000Y-114650000D03*
G04 #@! TO.P,D1,4,DIN*
G04 #@! TO.N,Net-(D1-DIN)*
X167450000Y-111350000D03*
G04 #@! TD*
D14*
G04 #@! TO.P,J2,1,Pin_1*
G04 #@! TO.N,+5V*
X171920000Y-101000000D03*
D15*
G04 #@! TO.P,J2,2,Pin_2*
G04 #@! TO.N,Net-(D1-DOUT)*
X174460000Y-101000000D03*
G04 #@! TO.P,J2,3,Pin_3*
G04 #@! TO.N,GND*
X177000000Y-101000000D03*
G04 #@! TD*
D33*
G04 #@! TO.P,R5,1*
G04 #@! TO.N,RESET*
X143900000Y-126900000D03*
G04 #@! TO.P,R5,2*
G04 #@! TO.N,+3V3*
X142250000Y-126900000D03*
G04 #@! TD*
D34*
G04 #@! TO.P,U3,1,NC*
G04 #@! TO.N,unconnected-(U3-NC-Pad1)*
X165050000Y-108137500D03*
G04 #@! TO.P,U3,2,A*
G04 #@! TO.N,NPX2*
X166000000Y-108137500D03*
G04 #@! TO.P,U3,3,GND*
G04 #@! TO.N,GND*
X166950000Y-108137500D03*
G04 #@! TO.P,U3,4,Y*
G04 #@! TO.N,Net-(D3-DIN)*
X166950000Y-105862500D03*
G04 #@! TO.P,U3,5,VCC*
G04 #@! TO.N,+5V*
X165050000Y-105862500D03*
G04 #@! TD*
D27*
G04 #@! TO.P,C2,1*
G04 #@! TO.N,+3V3*
X148000000Y-129275000D03*
G04 #@! TO.P,C2,2*
G04 #@! TO.N,GND*
X148000000Y-126325000D03*
G04 #@! TD*
D34*
G04 #@! TO.P,U2,1,NC*
G04 #@! TO.N,unconnected-(U2-NC-Pad1)*
X160050000Y-108137500D03*
G04 #@! TO.P,U2,2,A*
G04 #@! TO.N,NPX1*
X161000000Y-108137500D03*
G04 #@! TO.P,U2,3,GND*
G04 #@! TO.N,GND*
X161950000Y-108137500D03*
G04 #@! TO.P,U2,4,Y*
G04 #@! TO.N,Net-(D1-DIN)*
X161950000Y-105862500D03*
G04 #@! TO.P,U2,5,VCC*
G04 #@! TO.N,+5V*
X160050000Y-105862500D03*
G04 #@! TD*
D17*
G04 #@! TO.P,D3,1,VDD*
G04 #@! TO.N,+5V*
X162550000Y-118350000D03*
G04 #@! TO.P,D3,2,DOUT*
G04 #@! TO.N,Net-(D3-DOUT)*
X162550000Y-121650000D03*
G04 #@! TO.P,D3,3,VSS*
G04 #@! TO.N,GND*
X167450000Y-121650000D03*
G04 #@! TO.P,D3,4,DIN*
G04 #@! TO.N,Net-(D3-DIN)*
X167450000Y-118350000D03*
G04 #@! TD*
D35*
G04 #@! TO.P,C4,1*
G04 #@! TO.N,+3V3*
X139575000Y-130400000D03*
G04 #@! TO.P,C4,2*
G04 #@! TO.N,GND*
X138025000Y-130400000D03*
G04 #@! TD*
D21*
G04 #@! TO.P,SW1,1,1*
G04 #@! TO.N,GND*
X143900000Y-138000000D03*
X138100000Y-138000000D03*
G04 #@! TO.P,SW1,2,2*
G04 #@! TO.N,RESET*
X143900000Y-134000000D03*
X138100000Y-134000000D03*
G04 #@! TD*
D36*
G04 #@! TO.P,C3,1*
G04 #@! TO.N,+3V3*
X140475000Y-127000000D03*
G04 #@! TO.P,C3,2*
G04 #@! TO.N,GND*
X137525000Y-127000000D03*
G04 #@! TD*
D37*
G04 #@! TO.N,+5V*
X161000000Y-111000000D03*
X153000000Y-132000000D03*
X161000000Y-118000000D03*
G04 #@! TO.N,GND*
X145000000Y-136000000D03*
X168000000Y-109000000D03*
X163000000Y-108000000D03*
X155000000Y-99000000D03*
X166000000Y-120000000D03*
G04 #@! TO.N,+3V3*
X147000000Y-131000000D03*
X141000000Y-129000000D03*
G04 #@! TO.N,RESET*
X139000000Y-122000000D03*
G04 #@! TO.N,TOUCH2*
X157000000Y-109000000D03*
X152000000Y-105000000D03*
G04 #@! TO.N,BOOT*
X147987347Y-101987347D03*
X146000000Y-100000000D03*
G04 #@! TD*
D38*
G04 #@! TO.N,+5V*
X161412500Y-104500000D02*
X160050000Y-105862500D01*
X167000000Y-101400000D02*
X167000000Y-103912500D01*
X167000000Y-103912500D02*
X165050000Y-105862500D01*
X155000000Y-131475000D02*
X153525000Y-131475000D01*
X161350000Y-111350000D02*
X161000000Y-111000000D01*
X167000000Y-101400000D02*
X171520000Y-101400000D01*
X155000000Y-135150000D02*
X152000000Y-138150000D01*
X153525000Y-131475000D02*
X153000000Y-132000000D01*
X161350000Y-118350000D02*
X161000000Y-118000000D01*
X165050000Y-105862500D02*
X163687500Y-104500000D01*
X155000000Y-131475000D02*
X155000000Y-135150000D01*
X162550000Y-118350000D02*
X161350000Y-118350000D01*
X163687500Y-104500000D02*
X161412500Y-104500000D01*
X171520000Y-101400000D02*
X171920000Y-101000000D01*
X162550000Y-111350000D02*
X161350000Y-111350000D01*
D39*
G04 #@! TO.N,GND*
X162862500Y-108137500D02*
X163000000Y-108000000D01*
D38*
X136880000Y-126355000D02*
X137525000Y-127000000D01*
X144050000Y-138150000D02*
X143900000Y-138000000D01*
X136880000Y-123650000D02*
X136880000Y-126355000D01*
D39*
X146840000Y-93060000D02*
X146840000Y-92200000D01*
X161360000Y-97305000D02*
X160255000Y-96200000D01*
D38*
X155000000Y-128525000D02*
X155000000Y-120970000D01*
X147400000Y-133750000D02*
X143950000Y-130300000D01*
D39*
X167450000Y-114650000D02*
X166000000Y-116100000D01*
X166000000Y-116100000D02*
X166000000Y-120000000D01*
X161360000Y-97305000D02*
X161765000Y-97305000D01*
X166950000Y-108137500D02*
X167137500Y-108137500D01*
D38*
X143900000Y-138000000D02*
X138100000Y-138000000D01*
D39*
X155000000Y-99000000D02*
X155000000Y-99912500D01*
X143900000Y-96000000D02*
X146840000Y-93060000D01*
D38*
X144600000Y-116400000D02*
X142700000Y-116400000D01*
X147150000Y-138150000D02*
X145000000Y-136000000D01*
D39*
X138100000Y-96000000D02*
X143900000Y-96000000D01*
X168730000Y-97870000D02*
X169030000Y-97870000D01*
D38*
X144025000Y-130300000D02*
X148000000Y-126325000D01*
X142700000Y-116400000D02*
X136880000Y-122220000D01*
D39*
X167137500Y-108137500D02*
X168000000Y-109000000D01*
X155000000Y-99912500D02*
X155087500Y-100000000D01*
X155087500Y-98912500D02*
X155000000Y-99000000D01*
D38*
X154640000Y-120610000D02*
X148810000Y-120610000D01*
D39*
X136375000Y-105645000D02*
X136880000Y-106150000D01*
D38*
X148810000Y-120610000D02*
X144600000Y-116400000D01*
X147400000Y-138150000D02*
X147400000Y-133750000D01*
X147400000Y-138150000D02*
X144050000Y-138150000D01*
X147400000Y-138150000D02*
X147150000Y-138150000D01*
D39*
X155887500Y-96200000D02*
X155087500Y-97000000D01*
X155087500Y-97000000D02*
X155087500Y-98912500D01*
X167450000Y-121450000D02*
X166000000Y-120000000D01*
D38*
X137525000Y-129900000D02*
X138025000Y-130400000D01*
X143950000Y-130300000D02*
X144025000Y-130300000D01*
D39*
X160255000Y-96200000D02*
X155887500Y-96200000D01*
X161950000Y-108137500D02*
X162862500Y-108137500D01*
X136375000Y-97725000D02*
X136375000Y-105645000D01*
X167450000Y-121650000D02*
X167450000Y-121450000D01*
X169435000Y-97870000D02*
X170000000Y-97305000D01*
X138100000Y-96000000D02*
X136375000Y-97725000D01*
X161765000Y-97305000D02*
X162330000Y-97870000D01*
X162630000Y-97870000D02*
X162330000Y-97870000D01*
D38*
X155000000Y-120970000D02*
X154640000Y-120610000D01*
X136880000Y-122220000D02*
X136880000Y-123650000D01*
X137525000Y-127000000D02*
X137525000Y-129900000D01*
D39*
X169030000Y-97870000D02*
X169435000Y-97870000D01*
D38*
G04 #@! TO.N,+3V3*
X149700000Y-130975000D02*
X148000000Y-129275000D01*
X139575000Y-127900000D02*
X140475000Y-127000000D01*
X138150000Y-124675000D02*
X138150000Y-123650000D01*
X140575000Y-126900000D02*
X140475000Y-127000000D01*
X140475000Y-128475000D02*
X141000000Y-129000000D01*
X150387500Y-126887500D02*
X148000000Y-129275000D01*
X140475000Y-127000000D02*
X140475000Y-128475000D01*
X147850000Y-131850000D02*
X147000000Y-131000000D01*
X149700000Y-131850000D02*
X149700000Y-138150000D01*
X139575000Y-130400000D02*
X139575000Y-127900000D01*
X149700000Y-131850000D02*
X149700000Y-130975000D01*
X140475000Y-127000000D02*
X138150000Y-124675000D01*
X142250000Y-126900000D02*
X140575000Y-126900000D01*
X149700000Y-131850000D02*
X147850000Y-131850000D01*
X151000000Y-126887500D02*
X150387500Y-126887500D01*
D39*
G04 #@! TO.N,RESET*
X139420000Y-122420000D02*
X139000000Y-122000000D01*
X142400000Y-132500000D02*
X142400000Y-130300000D01*
X142400000Y-128400000D02*
X143900000Y-126900000D01*
X138100000Y-134000000D02*
X143900000Y-134000000D01*
X139420000Y-124400000D02*
X139420000Y-123650000D01*
X139420000Y-123650000D02*
X139420000Y-122420000D01*
X143900000Y-134000000D02*
X142400000Y-132500000D01*
X142400000Y-130300000D02*
X142400000Y-128400000D01*
X141725000Y-124725000D02*
X139745000Y-124725000D01*
X139745000Y-124725000D02*
X139420000Y-124400000D01*
X143900000Y-126900000D02*
X141725000Y-124725000D01*
G04 #@! TO.N,Net-(D1-DOUT)*
X165275000Y-121134620D02*
X166565380Y-122425000D01*
X169735000Y-122425000D02*
X175000000Y-117160000D01*
X162550000Y-114650000D02*
X165275000Y-117375000D01*
X166565380Y-122425000D02*
X169735000Y-122425000D01*
X165275000Y-117375000D02*
X165275000Y-121134620D01*
X173175000Y-115335000D02*
X173175000Y-102285000D01*
X173175000Y-102285000D02*
X174460000Y-101000000D01*
X175000000Y-117160000D02*
X173175000Y-115335000D01*
G04 #@! TO.N,NPX1*
X159703248Y-107150000D02*
X160675000Y-107150000D01*
X148310000Y-106150000D02*
X148310000Y-106900000D01*
X159303248Y-107550000D02*
X159703248Y-107150000D01*
X148960000Y-107550000D02*
X159303248Y-107550000D01*
X161000000Y-107475000D02*
X161000000Y-108137500D01*
X148310000Y-106900000D02*
X148960000Y-107550000D01*
X160675000Y-107150000D02*
X161000000Y-107475000D01*
G04 #@! TO.N,Net-(D2-A)*
X167930000Y-97870000D02*
X167930000Y-97154949D01*
X166484620Y-100000000D02*
X164400000Y-100000000D01*
X167930000Y-97154949D02*
X167745051Y-96970000D01*
X167930000Y-98554620D02*
X166484620Y-100000000D01*
X163430000Y-97185380D02*
X163430000Y-97870000D01*
X164400000Y-100000000D02*
X163000000Y-101400000D01*
X163645380Y-96970000D02*
X163430000Y-97185380D01*
X167930000Y-97870000D02*
X167930000Y-98554620D01*
X167745051Y-96970000D02*
X163645380Y-96970000D01*
G04 #@! TO.N,Net-(D3-DOUT)*
X175000000Y-128460000D02*
X174460000Y-129000000D01*
X175000000Y-127984000D02*
X174460000Y-128524000D01*
X173942059Y-123297941D02*
X175000000Y-122240000D01*
X162550000Y-121650000D02*
X164197941Y-123297941D01*
X164197941Y-123297941D02*
X173942059Y-123297941D01*
X175000000Y-122240000D02*
X175000000Y-127984000D01*
G04 #@! TO.N,NPX2*
X138150000Y-106150000D02*
X138150000Y-106900000D01*
X158578248Y-108000000D02*
X159703248Y-109125000D01*
X159703248Y-109125000D02*
X165875000Y-109125000D01*
X165875000Y-109125000D02*
X166000000Y-109000000D01*
X138150000Y-106900000D02*
X139250000Y-108000000D01*
X139250000Y-108000000D02*
X158578248Y-108000000D01*
X166000000Y-109000000D02*
X166000000Y-108137500D01*
G04 #@! TO.N,TOUCH1*
X155390000Y-109180000D02*
X154640000Y-109180000D01*
X155825000Y-109615000D02*
X155390000Y-109180000D01*
X155825000Y-126365000D02*
X155825000Y-109615000D01*
X162460000Y-133000000D02*
X155825000Y-126365000D01*
G04 #@! TO.N,TOUCH2*
X152000000Y-105000000D02*
X152000000Y-106030000D01*
X164540000Y-130000000D02*
X162000000Y-130000000D01*
X152000000Y-106030000D02*
X152120000Y-106150000D01*
X157000000Y-126000000D02*
X157000000Y-109000000D01*
X162000000Y-130000000D02*
X161000000Y-130000000D01*
X167540000Y-133000000D02*
X164540000Y-130000000D01*
X161000000Y-130000000D02*
X157000000Y-126000000D01*
G04 #@! TO.N,TXDO_PROG*
X140690000Y-106150000D02*
X140690000Y-105400000D01*
X145000000Y-103000000D02*
X149380000Y-98620000D01*
X149380000Y-98620000D02*
X149380000Y-92200000D01*
X143090000Y-103000000D02*
X145000000Y-103000000D01*
X140690000Y-105400000D02*
X143090000Y-103000000D01*
G04 #@! TO.N,RXDI_PROG*
X145000000Y-104000000D02*
X143000000Y-104000000D01*
X151920000Y-97029389D02*
X147262347Y-101687042D01*
X147262347Y-101687042D02*
X147262347Y-101737653D01*
X147262347Y-101737653D02*
X145000000Y-104000000D01*
X141960000Y-105040000D02*
X141960000Y-106150000D01*
X143000000Y-104000000D02*
X141960000Y-105040000D01*
X151920000Y-92200000D02*
X151920000Y-97029389D01*
G04 #@! TO.N,BOOT*
X150012652Y-101987347D02*
X147987347Y-101987347D01*
X143900000Y-100000000D02*
X146000000Y-100000000D01*
X153390000Y-106150000D02*
X153390000Y-105364695D01*
X138100000Y-100000000D02*
X143900000Y-100000000D01*
X153390000Y-95810000D02*
X153390000Y-106150000D01*
X153390000Y-105364695D02*
X150012652Y-101987347D01*
X157000000Y-92200000D02*
X153390000Y-95810000D01*
G04 #@! TO.N,LIGHT*
X144500000Y-124400000D02*
X144500000Y-123650000D01*
X155313174Y-130000000D02*
X152287500Y-130000000D01*
X157000000Y-131686826D02*
X155313174Y-130000000D01*
X151825000Y-125825000D02*
X150725000Y-124725000D01*
X151825000Y-127887500D02*
X151825000Y-125825000D01*
X157000000Y-134300000D02*
X157000000Y-131686826D01*
X144825000Y-124725000D02*
X144500000Y-124400000D01*
X150725000Y-124725000D02*
X144825000Y-124725000D01*
X151000000Y-128712500D02*
X151825000Y-127887500D01*
X152287500Y-130000000D02*
X151000000Y-128712500D01*
G04 #@! TO.N,Net-(D1-DIN)*
X163237500Y-107150000D02*
X167296752Y-107150000D01*
X167296752Y-107150000D02*
X169000000Y-108853248D01*
X161950000Y-105862500D02*
X163237500Y-107150000D01*
X169000000Y-108853248D02*
X169000000Y-109800000D01*
X169000000Y-109800000D02*
X167450000Y-111350000D01*
G04 #@! TO.N,Net-(D3-DIN)*
X169450000Y-116350000D02*
X167450000Y-118350000D01*
X166950000Y-105862500D02*
X169450000Y-108362500D01*
X169450000Y-108362500D02*
X169450000Y-116350000D01*
G04 #@! TO.N,Net-(J5-CC1)*
X165934620Y-99550000D02*
X157362500Y-99550000D01*
X166930000Y-98554620D02*
X165934620Y-99550000D01*
X166930000Y-97870000D02*
X166930000Y-98554620D01*
X157362500Y-99550000D02*
X156912500Y-100000000D01*
G04 #@! TO.N,Net-(J5-CC2)*
X163930000Y-97870000D02*
X163930000Y-98554620D01*
X163714620Y-98770000D02*
X158682500Y-98770000D01*
X163930000Y-98554620D02*
X163714620Y-98770000D01*
X158682500Y-98770000D02*
X156912500Y-97000000D01*
G04 #@! TD*
M02*
