G04 #@! TF.GenerationSoftware,KiCad,Pcbnew,7.0.8-7.0.8~ubuntu22.04.1*
G04 #@! TF.CreationDate,2023-11-04T16:43:40+00:00*
G04 #@! TF.ProjectId,kicad_dual_neopixel_driver,6b696361-645f-4647-9561-6c5f6e656f70,rev?*
G04 #@! TF.SameCoordinates,Original*
G04 #@! TF.FileFunction,Other,Comment*
%FSLAX46Y46*%
G04 Gerber Fmt 4.6, Leading zero omitted, Abs format (unit mm)*
G04 Created by KiCad (PCBNEW 7.0.8-7.0.8~ubuntu22.04.1) date 2023-11-04 16:43:40*
%MOMM*%
%LPD*%
G01*
G04 APERTURE LIST*
%ADD10C,0.150000*%
%ADD11C,0.100000*%
G04 APERTURE END LIST*
D10*
X126584819Y-120971428D02*
X125584819Y-120971428D01*
X126584819Y-120400000D02*
X126013390Y-120828571D01*
X125584819Y-120400000D02*
X126156247Y-120971428D01*
X126061009Y-119971428D02*
X126061009Y-119638095D01*
X126584819Y-119495238D02*
X126584819Y-119971428D01*
X126584819Y-119971428D02*
X125584819Y-119971428D01*
X125584819Y-119971428D02*
X125584819Y-119495238D01*
X126061009Y-119066666D02*
X126061009Y-118733333D01*
X126584819Y-118590476D02*
X126584819Y-119066666D01*
X126584819Y-119066666D02*
X125584819Y-119066666D01*
X125584819Y-119066666D02*
X125584819Y-118590476D01*
X126584819Y-118161904D02*
X125584819Y-118161904D01*
X125584819Y-118161904D02*
X125584819Y-117780952D01*
X125584819Y-117780952D02*
X125632438Y-117685714D01*
X125632438Y-117685714D02*
X125680057Y-117638095D01*
X125680057Y-117638095D02*
X125775295Y-117590476D01*
X125775295Y-117590476D02*
X125918152Y-117590476D01*
X125918152Y-117590476D02*
X126013390Y-117638095D01*
X126013390Y-117638095D02*
X126061009Y-117685714D01*
X126061009Y-117685714D02*
X126108628Y-117780952D01*
X126108628Y-117780952D02*
X126108628Y-118161904D01*
X126203866Y-117161904D02*
X126203866Y-116400000D01*
X125584819Y-115733333D02*
X125584819Y-115542857D01*
X125584819Y-115542857D02*
X125632438Y-115447619D01*
X125632438Y-115447619D02*
X125727676Y-115352381D01*
X125727676Y-115352381D02*
X125918152Y-115304762D01*
X125918152Y-115304762D02*
X126251485Y-115304762D01*
X126251485Y-115304762D02*
X126441961Y-115352381D01*
X126441961Y-115352381D02*
X126537200Y-115447619D01*
X126537200Y-115447619D02*
X126584819Y-115542857D01*
X126584819Y-115542857D02*
X126584819Y-115733333D01*
X126584819Y-115733333D02*
X126537200Y-115828571D01*
X126537200Y-115828571D02*
X126441961Y-115923809D01*
X126441961Y-115923809D02*
X126251485Y-115971428D01*
X126251485Y-115971428D02*
X125918152Y-115971428D01*
X125918152Y-115971428D02*
X125727676Y-115923809D01*
X125727676Y-115923809D02*
X125632438Y-115828571D01*
X125632438Y-115828571D02*
X125584819Y-115733333D01*
X125584819Y-114876190D02*
X126394342Y-114876190D01*
X126394342Y-114876190D02*
X126489580Y-114828571D01*
X126489580Y-114828571D02*
X126537200Y-114780952D01*
X126537200Y-114780952D02*
X126584819Y-114685714D01*
X126584819Y-114685714D02*
X126584819Y-114495238D01*
X126584819Y-114495238D02*
X126537200Y-114400000D01*
X126537200Y-114400000D02*
X126489580Y-114352381D01*
X126489580Y-114352381D02*
X126394342Y-114304762D01*
X126394342Y-114304762D02*
X125584819Y-114304762D01*
X125584819Y-113971428D02*
X125584819Y-113400000D01*
X126584819Y-113685714D02*
X125584819Y-113685714D01*
X125584819Y-112399999D02*
X125584819Y-111733333D01*
X125584819Y-111733333D02*
X126584819Y-112399999D01*
X126584819Y-112399999D02*
X126584819Y-111733333D01*
X125584819Y-111161904D02*
X125584819Y-110971428D01*
X125584819Y-110971428D02*
X125632438Y-110876190D01*
X125632438Y-110876190D02*
X125727676Y-110780952D01*
X125727676Y-110780952D02*
X125918152Y-110733333D01*
X125918152Y-110733333D02*
X126251485Y-110733333D01*
X126251485Y-110733333D02*
X126441961Y-110780952D01*
X126441961Y-110780952D02*
X126537200Y-110876190D01*
X126537200Y-110876190D02*
X126584819Y-110971428D01*
X126584819Y-110971428D02*
X126584819Y-111161904D01*
X126584819Y-111161904D02*
X126537200Y-111257142D01*
X126537200Y-111257142D02*
X126441961Y-111352380D01*
X126441961Y-111352380D02*
X126251485Y-111399999D01*
X126251485Y-111399999D02*
X125918152Y-111399999D01*
X125918152Y-111399999D02*
X125727676Y-111352380D01*
X125727676Y-111352380D02*
X125632438Y-111257142D01*
X125632438Y-111257142D02*
X125584819Y-111161904D01*
X126584819Y-110304761D02*
X125584819Y-110304761D01*
X125584819Y-110304761D02*
X126584819Y-109733333D01*
X126584819Y-109733333D02*
X125584819Y-109733333D01*
X126061009Y-109257142D02*
X126061009Y-108923809D01*
X126584819Y-108780952D02*
X126584819Y-109257142D01*
X126584819Y-109257142D02*
X125584819Y-109257142D01*
X125584819Y-109257142D02*
X125584819Y-108780952D01*
X132299104Y-117661904D02*
X132299104Y-117185714D01*
X132584819Y-117757142D02*
X131584819Y-117423809D01*
X131584819Y-117423809D02*
X132584819Y-117090476D01*
X131918152Y-116757142D02*
X132584819Y-116757142D01*
X132013390Y-116757142D02*
X131965771Y-116709523D01*
X131965771Y-116709523D02*
X131918152Y-116614285D01*
X131918152Y-116614285D02*
X131918152Y-116471428D01*
X131918152Y-116471428D02*
X131965771Y-116376190D01*
X131965771Y-116376190D02*
X132061009Y-116328571D01*
X132061009Y-116328571D02*
X132584819Y-116328571D01*
X131918152Y-115995237D02*
X131918152Y-115614285D01*
X131584819Y-115852380D02*
X132441961Y-115852380D01*
X132441961Y-115852380D02*
X132537200Y-115804761D01*
X132537200Y-115804761D02*
X132584819Y-115709523D01*
X132584819Y-115709523D02*
X132584819Y-115614285D01*
X132537200Y-114899999D02*
X132584819Y-114995237D01*
X132584819Y-114995237D02*
X132584819Y-115185713D01*
X132584819Y-115185713D02*
X132537200Y-115280951D01*
X132537200Y-115280951D02*
X132441961Y-115328570D01*
X132441961Y-115328570D02*
X132061009Y-115328570D01*
X132061009Y-115328570D02*
X131965771Y-115280951D01*
X131965771Y-115280951D02*
X131918152Y-115185713D01*
X131918152Y-115185713D02*
X131918152Y-114995237D01*
X131918152Y-114995237D02*
X131965771Y-114899999D01*
X131965771Y-114899999D02*
X132061009Y-114852380D01*
X132061009Y-114852380D02*
X132156247Y-114852380D01*
X132156247Y-114852380D02*
X132251485Y-115328570D01*
X131918152Y-114423808D02*
X132584819Y-114423808D01*
X132013390Y-114423808D02*
X131965771Y-114376189D01*
X131965771Y-114376189D02*
X131918152Y-114280951D01*
X131918152Y-114280951D02*
X131918152Y-114138094D01*
X131918152Y-114138094D02*
X131965771Y-114042856D01*
X131965771Y-114042856D02*
X132061009Y-113995237D01*
X132061009Y-113995237D02*
X132584819Y-113995237D01*
X131918152Y-113519046D02*
X132584819Y-113519046D01*
X132013390Y-113519046D02*
X131965771Y-113471427D01*
X131965771Y-113471427D02*
X131918152Y-113376189D01*
X131918152Y-113376189D02*
X131918152Y-113233332D01*
X131918152Y-113233332D02*
X131965771Y-113138094D01*
X131965771Y-113138094D02*
X132061009Y-113090475D01*
X132061009Y-113090475D02*
X132584819Y-113090475D01*
X132584819Y-112185713D02*
X132061009Y-112185713D01*
X132061009Y-112185713D02*
X131965771Y-112233332D01*
X131965771Y-112233332D02*
X131918152Y-112328570D01*
X131918152Y-112328570D02*
X131918152Y-112519046D01*
X131918152Y-112519046D02*
X131965771Y-112614284D01*
X132537200Y-112185713D02*
X132584819Y-112280951D01*
X132584819Y-112280951D02*
X132584819Y-112519046D01*
X132584819Y-112519046D02*
X132537200Y-112614284D01*
X132537200Y-112614284D02*
X132441961Y-112661903D01*
X132441961Y-112661903D02*
X132346723Y-112661903D01*
X132346723Y-112661903D02*
X132251485Y-112614284D01*
X132251485Y-112614284D02*
X132203866Y-112519046D01*
X132203866Y-112519046D02*
X132203866Y-112280951D01*
X132203866Y-112280951D02*
X132156247Y-112185713D01*
D11*
X120391904Y-106826109D02*
X120153809Y-106826109D01*
X120153809Y-106826109D02*
X120130000Y-107064204D01*
X120130000Y-107064204D02*
X120153809Y-107040395D01*
X120153809Y-107040395D02*
X120201428Y-107016585D01*
X120201428Y-107016585D02*
X120320476Y-107016585D01*
X120320476Y-107016585D02*
X120368095Y-107040395D01*
X120368095Y-107040395D02*
X120391904Y-107064204D01*
X120391904Y-107064204D02*
X120415714Y-107111823D01*
X120415714Y-107111823D02*
X120415714Y-107230871D01*
X120415714Y-107230871D02*
X120391904Y-107278490D01*
X120391904Y-107278490D02*
X120368095Y-107302300D01*
X120368095Y-107302300D02*
X120320476Y-107326109D01*
X120320476Y-107326109D02*
X120201428Y-107326109D01*
X120201428Y-107326109D02*
X120153809Y-107302300D01*
X120153809Y-107302300D02*
X120130000Y-107278490D01*
X121010951Y-107326109D02*
X121010951Y-106992776D01*
X121010951Y-107040395D02*
X121034761Y-107016585D01*
X121034761Y-107016585D02*
X121082380Y-106992776D01*
X121082380Y-106992776D02*
X121153808Y-106992776D01*
X121153808Y-106992776D02*
X121201427Y-107016585D01*
X121201427Y-107016585D02*
X121225237Y-107064204D01*
X121225237Y-107064204D02*
X121225237Y-107326109D01*
X121225237Y-107064204D02*
X121249046Y-107016585D01*
X121249046Y-107016585D02*
X121296665Y-106992776D01*
X121296665Y-106992776D02*
X121368094Y-106992776D01*
X121368094Y-106992776D02*
X121415713Y-107016585D01*
X121415713Y-107016585D02*
X121439523Y-107064204D01*
X121439523Y-107064204D02*
X121439523Y-107326109D01*
X121677618Y-107326109D02*
X121677618Y-106992776D01*
X121677618Y-107040395D02*
X121701428Y-107016585D01*
X121701428Y-107016585D02*
X121749047Y-106992776D01*
X121749047Y-106992776D02*
X121820475Y-106992776D01*
X121820475Y-106992776D02*
X121868094Y-107016585D01*
X121868094Y-107016585D02*
X121891904Y-107064204D01*
X121891904Y-107064204D02*
X121891904Y-107326109D01*
X121891904Y-107064204D02*
X121915713Y-107016585D01*
X121915713Y-107016585D02*
X121963332Y-106992776D01*
X121963332Y-106992776D02*
X122034761Y-106992776D01*
X122034761Y-106992776D02*
X122082380Y-107016585D01*
X122082380Y-107016585D02*
X122106190Y-107064204D01*
X122106190Y-107064204D02*
X122106190Y-107326109D01*
X130481109Y-131838095D02*
X130481109Y-132076190D01*
X130481109Y-132076190D02*
X130719204Y-132099999D01*
X130719204Y-132099999D02*
X130695395Y-132076190D01*
X130695395Y-132076190D02*
X130671585Y-132028571D01*
X130671585Y-132028571D02*
X130671585Y-131909523D01*
X130671585Y-131909523D02*
X130695395Y-131861904D01*
X130695395Y-131861904D02*
X130719204Y-131838095D01*
X130719204Y-131838095D02*
X130766823Y-131814285D01*
X130766823Y-131814285D02*
X130885871Y-131814285D01*
X130885871Y-131814285D02*
X130933490Y-131838095D01*
X130933490Y-131838095D02*
X130957300Y-131861904D01*
X130957300Y-131861904D02*
X130981109Y-131909523D01*
X130981109Y-131909523D02*
X130981109Y-132028571D01*
X130981109Y-132028571D02*
X130957300Y-132076190D01*
X130957300Y-132076190D02*
X130933490Y-132099999D01*
X130981109Y-131219048D02*
X130647776Y-131219048D01*
X130695395Y-131219048D02*
X130671585Y-131195238D01*
X130671585Y-131195238D02*
X130647776Y-131147619D01*
X130647776Y-131147619D02*
X130647776Y-131076191D01*
X130647776Y-131076191D02*
X130671585Y-131028572D01*
X130671585Y-131028572D02*
X130719204Y-131004762D01*
X130719204Y-131004762D02*
X130981109Y-131004762D01*
X130719204Y-131004762D02*
X130671585Y-130980953D01*
X130671585Y-130980953D02*
X130647776Y-130933334D01*
X130647776Y-130933334D02*
X130647776Y-130861905D01*
X130647776Y-130861905D02*
X130671585Y-130814286D01*
X130671585Y-130814286D02*
X130719204Y-130790476D01*
X130719204Y-130790476D02*
X130981109Y-130790476D01*
X130981109Y-130552381D02*
X130647776Y-130552381D01*
X130695395Y-130552381D02*
X130671585Y-130528571D01*
X130671585Y-130528571D02*
X130647776Y-130480952D01*
X130647776Y-130480952D02*
X130647776Y-130409524D01*
X130647776Y-130409524D02*
X130671585Y-130361905D01*
X130671585Y-130361905D02*
X130719204Y-130338095D01*
X130719204Y-130338095D02*
X130981109Y-130338095D01*
X130719204Y-130338095D02*
X130671585Y-130314286D01*
X130671585Y-130314286D02*
X130647776Y-130266667D01*
X130647776Y-130266667D02*
X130647776Y-130195238D01*
X130647776Y-130195238D02*
X130671585Y-130147619D01*
X130671585Y-130147619D02*
X130719204Y-130123809D01*
X130719204Y-130123809D02*
X130981109Y-130123809D01*
X130481109Y-99438095D02*
X130481109Y-99676190D01*
X130481109Y-99676190D02*
X130719204Y-99699999D01*
X130719204Y-99699999D02*
X130695395Y-99676190D01*
X130695395Y-99676190D02*
X130671585Y-99628571D01*
X130671585Y-99628571D02*
X130671585Y-99509523D01*
X130671585Y-99509523D02*
X130695395Y-99461904D01*
X130695395Y-99461904D02*
X130719204Y-99438095D01*
X130719204Y-99438095D02*
X130766823Y-99414285D01*
X130766823Y-99414285D02*
X130885871Y-99414285D01*
X130885871Y-99414285D02*
X130933490Y-99438095D01*
X130933490Y-99438095D02*
X130957300Y-99461904D01*
X130957300Y-99461904D02*
X130981109Y-99509523D01*
X130981109Y-99509523D02*
X130981109Y-99628571D01*
X130981109Y-99628571D02*
X130957300Y-99676190D01*
X130957300Y-99676190D02*
X130933490Y-99699999D01*
X130981109Y-98819048D02*
X130647776Y-98819048D01*
X130695395Y-98819048D02*
X130671585Y-98795238D01*
X130671585Y-98795238D02*
X130647776Y-98747619D01*
X130647776Y-98747619D02*
X130647776Y-98676191D01*
X130647776Y-98676191D02*
X130671585Y-98628572D01*
X130671585Y-98628572D02*
X130719204Y-98604762D01*
X130719204Y-98604762D02*
X130981109Y-98604762D01*
X130719204Y-98604762D02*
X130671585Y-98580953D01*
X130671585Y-98580953D02*
X130647776Y-98533334D01*
X130647776Y-98533334D02*
X130647776Y-98461905D01*
X130647776Y-98461905D02*
X130671585Y-98414286D01*
X130671585Y-98414286D02*
X130719204Y-98390476D01*
X130719204Y-98390476D02*
X130981109Y-98390476D01*
X130981109Y-98152381D02*
X130647776Y-98152381D01*
X130695395Y-98152381D02*
X130671585Y-98128571D01*
X130671585Y-98128571D02*
X130647776Y-98080952D01*
X130647776Y-98080952D02*
X130647776Y-98009524D01*
X130647776Y-98009524D02*
X130671585Y-97961905D01*
X130671585Y-97961905D02*
X130719204Y-97938095D01*
X130719204Y-97938095D02*
X130981109Y-97938095D01*
X130719204Y-97938095D02*
X130671585Y-97914286D01*
X130671585Y-97914286D02*
X130647776Y-97866667D01*
X130647776Y-97866667D02*
X130647776Y-97795238D01*
X130647776Y-97795238D02*
X130671585Y-97747619D01*
X130671585Y-97747619D02*
X130719204Y-97723809D01*
X130719204Y-97723809D02*
X130981109Y-97723809D01*
G04 #@! TO.C,U4*
X131255000Y-138840000D02*
X131055000Y-138640000D01*
X131255000Y-138840000D02*
X131455000Y-138640000D01*
X131255000Y-138840000D02*
X131255000Y-124100000D01*
X131255000Y-124100000D02*
X131055000Y-124300000D01*
X131255000Y-124100000D02*
X131455000Y-124300000D01*
X114450000Y-106500000D02*
X114650000Y-106700000D01*
X114450000Y-106500000D02*
X114650000Y-106300000D01*
X129130000Y-106500000D02*
X128930000Y-106700000D01*
X129130000Y-106500000D02*
X114450000Y-106500000D01*
X129130000Y-106500000D02*
X128930000Y-106300000D01*
X131255000Y-105700000D02*
X131055000Y-105500000D01*
X131255000Y-105700000D02*
X131455000Y-105500000D01*
X131255000Y-105700000D02*
X131255000Y-90960000D01*
X131255000Y-90960000D02*
X131055000Y-91160000D01*
X131255000Y-90960000D02*
X131455000Y-91160000D01*
D10*
G04 #@! TO.C,REF\u002A\u002A*
X177800000Y-94000000D02*
G75*
G03*
X177800000Y-94000000I-2800000J0D01*
G01*
X177800000Y-136000000D02*
G75*
G03*
X177800000Y-136000000I-2800000J0D01*
G01*
G04 #@! TD*
M02*
